<?xml version="1.0" standalone="no"?>
<!DOCTYPE svg PUBLIC "-//W3C//DTD SVG 20010904//EN"
 "http://www.w3.org/TR/2001/REC-SVG-20010904/DTD/svg10.dtd">
<svg version="1.0" xmlns="http://www.w3.org/2000/svg"
 width="659.000000pt" height="659.000000pt" viewBox="0 0 659.000000 659.000000"
 preserveAspectRatio="xMidYMid meet">
<metadata>
Created by potrace 1.14, written by Peter Selinger 2001-2017
</metadata>
<g transform="translate(0.000000,659.000000) scale(0.100000,-0.100000)"
fill="#000000" stroke="none">
<path d="M2693 6316 c6 -14 4 -16 -5 -9 -15 11 -28 11 -45 0 -8 -5 -13 -3 -13
5 0 9 -3 9 -10 -2 -8 -13 -10 -13 -10 0 0 11 -3 11 -12 2 -16 -16 -31 -15 -22
1 5 8 2 8 -9 -2 -12 -9 -17 -10 -17 -2 0 7 -5 9 -10 6 -6 -4 -7 -12 -4 -18 4
-7 4 -9 -1 -5 -4 4 -15 3 -22 -4 -9 -7 -17 -8 -21 -2 -10 13 -35 17 -27 4 6
-10 -14 -15 -44 -11 -8 2 -10 -2 -5 -11 6 -10 4 -10 -9 1 -13 10 -17 10 -17 1
0 -8 -8 -10 -21 -7 -15 4 -18 2 -10 -7 8 -9 6 -12 -7 -11 -9 0 -24 5 -31 10
-11 6 -13 4 -8 -9 4 -9 3 -14 -2 -11 -5 3 -12 1 -15 -4 -4 -5 -17 -8 -31 -7
-13 2 -22 0 -20 -5 3 -4 1 -10 -5 -14 -5 -3 -10 -1 -10 4 0 6 -5 11 -12 11 -6
0 -8 -3 -5 -7 10 -9 -31 -35 -43 -28 -6 3 -13 -1 -16 -10 -6 -13 -8 -14 -15
-3 -7 10 -9 10 -9 1 0 -7 -7 -13 -16 -13 -8 0 -13 -4 -10 -8 2 -4 -7 -9 -22
-10 -14 -1 -30 -9 -35 -17 -4 -9 -12 -13 -18 -10 -5 4 -9 1 -9 -5 0 -7 -7 -10
-15 -7 -8 4 -17 1 -21 -5 -5 -7 -2 -8 6 -3 9 5 11 4 6 -3 -4 -7 -14 -12 -23
-12 -9 0 -21 -7 -27 -15 -6 -8 -22 -17 -35 -20 -13 -2 -25 -6 -26 -7 -1 -2 -8
-12 -14 -23 -11 -18 -12 -18 -7 -1 6 16 4 17 -9 6 -8 -7 -12 -16 -9 -21 3 -5
-2 -6 -10 -3 -9 3 -16 1 -16 -5 0 -6 -7 -11 -15 -11 -8 0 -15 -5 -15 -12 0 -6
-3 -9 -6 -5 -4 3 -13 -1 -21 -9 -9 -8 -22 -13 -31 -9 -12 4 -13 3 -3 -9 11
-13 9 -15 -8 -11 -14 2 -18 -1 -15 -10 4 -10 0 -13 -15 -10 -12 2 -19 0 -16
-6 6 -8 -8 -13 -28 -10 -5 1 -6 -3 -2 -9 3 -5 1 -10 -5 -10 -6 0 -8 -5 -5 -10
4 -6 3 -10 -2 -9 -19 3 -34 -2 -29 -10 3 -5 -1 -12 -10 -15 -10 -4 -13 -2 -9
7 4 6 -1 3 -10 -8 -9 -11 -21 -19 -26 -18 -5 2 -9 -4 -9 -12 0 -14 -12 -20
-33 -16 -5 1 -6 -2 -4 -6 6 -10 -19 -34 -27 -26 -3 4 -6 1 -6 -6 0 -7 -5 -9
-12 -5 -8 5 -9 2 -5 -9 4 -10 2 -16 -6 -14 -7 1 -11 -4 -9 -11 1 -8 -2 -11 -7
-8 -5 4 -16 -1 -25 -10 -9 -8 -20 -12 -26 -9 -6 4 -10 3 -9 -2 3 -20 -2 -34
-11 -28 -5 3 -10 -1 -10 -9 0 -8 -5 -18 -12 -22 -7 -4 -8 -3 -4 4 4 7 2 12 -3
12 -10 0 -15 -14 -12 -33 1 -5 -3 -6 -9 -2 -5 3 -13 -1 -16 -9 -3 -9 -13 -16
-21 -16 -8 0 -12 -4 -8 -9 3 -5 1 -12 -5 -16 -5 -3 -10 0 -11 7 0 7 -4 3 -9
-9 -5 -13 -15 -23 -21 -23 -7 0 -9 -3 -6 -7 4 -3 -3 -11 -16 -18 -12 -6 -21
-19 -21 -28 1 -9 -2 -15 -6 -12 -13 8 -60 -40 -60 -61 0 -16 -2 -17 -10 -4 -9
13 -14 7 -11 -12 0 -5 -4 -8 -10 -8 -5 0 -7 -5 -3 -12 4 -7 3 -8 -4 -4 -6 3
-16 -3 -22 -14 -6 -11 -15 -18 -20 -15 -5 3 -12 -6 -16 -20 -3 -13 -9 -23 -13
-21 -3 2 -11 -2 -18 -9 -10 -11 -10 -15 0 -18 7 -3 2 -6 -11 -6 -12 -1 -21 -7
-20 -13 2 -7 -3 -12 -10 -10 -6 1 -11 -1 -11 -5 3 -20 -2 -34 -11 -28 -5 3
-10 -1 -10 -9 0 -8 -9 -20 -20 -26 -11 -6 -18 -15 -15 -21 4 -5 -2 -9 -12 -9
-14 0 -15 -2 -4 -9 11 -7 9 -10 -8 -16 -12 -4 -27 -17 -33 -31 -6 -13 -15 -21
-19 -18 -4 2 -6 -5 -4 -16 2 -11 0 -18 -6 -15 -5 4 -12 -2 -16 -12 -4 -10 -13
-24 -21 -32 -7 -7 -11 -20 -8 -27 3 -8 0 -11 -9 -8 -7 3 -16 -3 -20 -15 -3
-11 -11 -20 -17 -18 -6 1 -12 -7 -14 -18 -1 -11 -8 -21 -14 -23 -5 -2 -8 -8
-4 -13 3 -5 0 -9 -6 -9 -6 0 -9 -4 -6 -8 3 -5 -3 -16 -12 -25 -31 -29 -43 -47
-45 -66 0 -11 -7 -17 -14 -14 -8 3 -11 -2 -8 -16 2 -12 0 -21 -6 -21 -5 0 -9
-7 -9 -16 0 -8 -4 -12 -10 -9 -9 6 -12 2 -14 -27 -1 -7 -10 -21 -21 -31 -11
-10 -14 -16 -7 -12 6 3 12 1 12 -4 0 -6 -4 -11 -10 -11 -5 0 -10 -6 -10 -13 0
-7 -9 -18 -20 -25 -11 -7 -20 -17 -20 -24 0 -7 7 -3 16 8 15 17 14 16 0 -6 -9
-14 -19 -32 -23 -40 -4 -8 -11 -18 -17 -22 -7 -5 -7 -8 2 -8 7 0 10 -5 7 -10
-4 -6 -11 -8 -16 -4 -6 3 -10 0 -8 -7 3 -29 -1 -40 -13 -33 -8 5 -7 0 2 -11 9
-11 10 -16 3 -11 -7 4 -13 2 -13 -3 0 -22 -2 -26 -16 -42 -11 -12 -11 -18 -1
-29 9 -10 9 -11 0 -6 -12 7 -17 -6 -16 -41 1 -7 -3 -13 -8 -13 -5 0 -9 -6 -9
-14 0 -8 -6 -17 -12 -19 -10 -4 -9 -6 1 -6 9 -1 10 -5 4 -13 -15 -20 -24 -50
-13 -43 6 3 10 1 10 -4 0 -6 -7 -11 -16 -11 -14 0 -14 -3 -4 -15 10 -12 10
-15 0 -15 -8 0 -11 -12 -8 -34 2 -21 0 -32 -6 -29 -5 4 -7 -1 -3 -10 3 -9 3
-18 -1 -21 -9 -5 -8 -48 1 -62 3 -5 2 -16 -4 -24 -12 -21 -11 -33 3 -24 7 5 8
3 2 -7 -12 -20 -16 -51 -5 -44 11 6 9 -35 -3 -53 -4 -7 -3 -12 3 -12 6 0 7 -7
4 -17 -5 -11 -3 -14 6 -8 10 6 11 2 6 -15 -4 -14 -3 -20 3 -16 5 3 9 -6 9 -20
0 -15 7 -30 14 -35 8 -5 10 -9 4 -9 -5 0 -2 -5 8 -11 9 -5 17 -17 17 -24 0 -8
5 -15 11 -15 5 0 7 -4 4 -10 -3 -5 1 -10 10 -10 9 0 13 -4 10 -10 -3 -5 -1
-10 5 -10 14 0 40 -25 40 -39 0 -6 7 -8 15 -5 9 4 23 -3 34 -15 14 -16 21 -18
24 -9 4 9 6 8 6 -3 1 -11 9 -16 23 -15 13 1 31 -4 41 -12 12 -11 17 -12 17 -3
0 7 5 9 10 6 6 -4 7 -12 3 -18 -4 -7 0 -6 10 2 11 9 17 10 17 2 0 -6 5 -11 11
-11 5 0 7 5 3 11 -5 8 -1 8 14 0 27 -14 35 -14 26 2 -6 9 -5 9 7 0 12 -10 18
-10 27 -1 8 8 12 8 12 1 0 -14 62 -12 72 2 5 6 8 5 8 -4 0 -11 3 -11 17 0 14
12 15 12 9 0 -5 -8 3 -6 20 5 15 11 25 13 21 7 -5 -7 -4 -13 2 -13 6 0 11 5
11 11 0 8 6 7 17 -2 9 -8 14 -9 10 -2 -10 16 13 22 42 11 21 -7 22 -7 12 6
-11 13 -9 14 14 10 15 -3 24 -1 21 4 -3 5 6 8 19 6 14 -1 25 3 25 9 0 7 16 13
37 13 21 1 42 8 49 18 9 13 13 14 17 4 3 -8 6 -5 6 7 1 16 3 17 11 5 8 -12 10
-12 16 3 5 14 9 15 21 6 8 -7 13 -8 12 -3 -4 21 2 28 11 14 6 -10 10 -11 10
-2 0 6 7 12 16 12 8 0 12 4 9 10 -4 6 1 7 11 3 13 -5 15 -3 9 7 -6 9 -4 11 4
6 7 -5 21 0 32 10 19 17 20 17 14 -2 -6 -17 -6 -18 5 -1 6 9 17 14 23 11 7 -4
9 -4 5 1 -10 11 29 38 42 30 6 -3 10 2 10 12 0 15 2 16 10 3 8 -12 10 -12 16
3 3 9 10 14 15 11 5 -3 9 0 9 6 0 7 7 10 15 6 8 -3 14 0 12 7 -1 7 6 11 18 9
11 -2 17 -1 13 4 -4 4 -3 13 3 21 10 11 15 11 27 1 13 -10 14 -10 8 0 -4 6 -3
12 3 12 5 0 16 6 23 13 7 6 22 19 32 27 18 13 19 13 11 0 -4 -8 3 -3 18 12 18
19 31 26 44 21 16 -6 16 -5 4 10 -12 15 -12 17 4 11 14 -6 16 -4 10 6 -5 8 -4
11 3 6 6 -3 15 2 21 11 6 11 11 13 11 5 0 -10 4 -10 16 2 8 9 19 16 24 16 5 0
7 7 3 15 -3 9 -2 15 3 14 21 -4 35 2 29 11 -4 6 1 7 11 3 13 -5 15 -3 9 7 -6
10 -4 12 8 7 13 -5 17 -1 17 15 0 17 2 19 16 8 12 -11 15 -11 12 0 -2 7 7 19
20 25 13 7 23 16 24 21 0 5 4 8 9 6 5 -1 9 3 9 9 0 5 4 8 9 5 9 -6 26 22 22
37 -1 5 3 6 7 3 12 -7 54 29 44 38 -4 4 -2 7 3 6 21 -5 36 0 30 10 -3 6 1 10
10 10 11 0 15 5 12 14 -4 9 -1 13 6 11 18 -7 50 22 41 36 -4 8 -3 10 4 5 7 -4
12 -2 12 4 0 6 3 9 8 7 4 -2 18 8 32 21 14 14 18 22 10 18 -8 -4 -6 -1 4 8 10
8 23 13 27 10 5 -3 6 1 3 9 -3 8 3 20 13 28 17 13 17 13 3 -5 -9 -12 -10 -17
-2 -12 6 4 19 21 28 37 11 22 20 29 32 24 9 -3 13 -3 10 1 -10 10 11 46 23 39
5 -4 9 1 9 9 0 9 7 16 16 16 10 0 14 6 10 15 -3 8 -2 14 2 12 4 -1 17 8 29 21
13 12 20 22 15 22 -4 1 4 7 18 15 15 9 19 14 10 15 -13 0 -13 2 0 9 8 6 18 7
24 4 5 -3 6 -1 2 5 -3 6 0 17 8 25 8 8 12 18 8 23 -4 5 2 2 12 -6 13 -10 17
-10 12 -2 -4 6 -3 12 3 12 6 0 8 7 5 15 -4 10 0 15 12 15 9 0 14 3 11 6 -4 4
3 15 15 25 11 11 17 19 12 19 -5 0 -1 5 9 11 9 5 17 16 17 23 0 8 8 20 18 27
16 13 16 13 2 -6 -14 -19 -14 -19 2 -6 10 7 16 17 13 21 -3 5 1 15 9 23 8 8
12 18 8 22 -4 5 1 5 10 2 10 -3 17 -3 17 1 -3 20 3 34 29 58 15 15 20 23 12
18 -10 -5 -9 -2 2 8 10 9 18 22 18 30 0 7 9 21 20 31 12 10 18 22 15 27 -4 6
1 7 11 3 11 -4 15 -3 10 5 -3 6 4 21 16 33 13 12 18 19 12 16 -6 -3 -11 0 -11
7 0 8 6 12 13 9 6 -2 15 1 20 8 5 8 3 10 -7 4 -8 -5 -5 2 6 15 11 13 14 20 6
15 -10 -6 -12 -4 -7 4 5 7 14 10 21 8 8 -4 11 3 10 18 -2 13 6 33 16 44 11 11
24 32 29 46 6 15 14 24 18 21 5 -3 9 1 9 8 0 9 -7 12 -16 8 -9 -3 -4 6 11 20
15 14 25 28 22 31 -3 2 4 21 15 41 12 20 18 36 14 36 -4 0 2 7 13 16 10 8 12
12 4 8 -12 -7 -13 -5 -3 8 7 8 10 18 6 21 -3 4 -2 7 4 7 6 0 14 7 17 16 4 10
2 13 -7 9 -6 -4 -3 1 7 9 15 12 16 16 5 16 -12 0 -12 2 0 9 7 5 11 13 7 19 -4
6 4 20 16 32 19 18 21 22 8 31 -13 8 -13 11 2 19 9 6 15 17 12 24 -3 8 0 17 6
21 8 5 8 11 -1 21 -9 11 -8 15 6 20 13 5 14 9 3 15 -11 7 -11 9 1 9 11 0 11 3
1 15 -7 9 -8 15 -2 15 16 0 22 28 12 55 -6 15 -6 26 1 30 5 4 7 11 4 16 -4 5
0 9 7 9 9 0 9 3 -2 10 -11 7 -11 10 -2 10 10 0 10 5 2 20 -6 11 -8 25 -4 31 4
6 0 16 -7 21 -11 7 -11 11 -2 15 9 3 8 11 -5 31 -9 14 -11 23 -4 19 6 -5 12
-4 12 2 0 6 -4 11 -10 11 -5 0 -7 6 -4 14 3 8 1 17 -5 21 -6 3 -11 15 -11 26
0 11 -4 18 -9 15 -5 -3 -12 1 -15 10 -4 10 -2 13 7 8 6 -4 0 4 -15 19 -16 14
-28 35 -28 47 0 11 -6 19 -12 18 -7 -2 -12 3 -10 10 1 6 -7 12 -18 12 -11 0
-20 6 -20 14 0 9 -8 13 -22 10 -13 -2 -17 -1 -10 2 10 5 9 9 -5 19 -14 10 -22
11 -33 2 -8 -6 -12 -8 -8 -3 10 12 -15 36 -28 25 -6 -5 -19 -1 -32 11 -14 14
-22 16 -26 7 -3 -9 -7 -8 -15 3 -8 11 -11 12 -11 2 0 -7 -5 -10 -10 -7 -6 4
-8 12 -4 18 3 7 -2 3 -10 -7 -9 -11 -16 -14 -16 -8 0 7 -10 10 -22 8 -13 -2
-29 2 -37 8 -12 9 -13 7 -8 -8z"/>
<path d="M3895 6320 c-11 -4 -26 -5 -34 -2 -8 3 -12 1 -8 -5 7 -11 -22 -11
-40 0 -6 4 -14 0 -17 -9 -5 -13 -9 -14 -21 -4 -11 9 -15 9 -15 1 0 -7 -4 -9
-10 -6 -5 3 -10 2 -10 -2 0 -5 -10 -9 -22 -10 -11 -1 -24 -6 -27 -12 -4 -5
-18 -13 -34 -16 -15 -4 -24 -11 -21 -16 3 -5 0 -9 -6 -9 -6 0 -8 -4 -5 -10 3
-6 -1 -7 -9 -4 -11 4 -16 0 -16 -11 0 -9 -4 -14 -9 -11 -11 7 -23 -22 -16 -35
4 -5 0 -7 -7 -4 -7 3 -19 -4 -26 -16 -8 -12 -9 -18 -3 -15 7 4 8 1 5 -8 -3 -9
-10 -13 -15 -10 -8 5 -13 -9 -10 -28 0 -5 -3 -8 -9 -8 -5 0 -7 -6 -4 -14 3 -8
1 -17 -5 -20 -6 -4 -7 -14 -4 -23 4 -10 2 -14 -4 -10 -7 5 -9 -1 -5 -15 4 -16
2 -19 -9 -13 -12 7 -12 6 -1 -7 10 -13 10 -17 0 -21 -10 -4 -10 -6 1 -6 11 -1
11 -4 1 -16 -10 -12 -10 -15 1 -15 10 0 10 -3 2 -11 -6 -6 -9 -17 -7 -24 3 -7
1 -16 -5 -19 -6 -4 -8 -13 -5 -21 4 -8 11 -12 18 -8 6 4 5 -1 -3 -10 -10 -13
-10 -17 -1 -17 10 0 10 -3 0 -15 -10 -12 -9 -16 5 -21 17 -7 17 -8 -1 -21 -17
-12 -16 -13 7 -14 13 0 18 -3 12 -6 -7 -2 -13 -14 -13 -24 0 -14 4 -18 13 -13
8 5 8 2 -2 -9 -9 -12 -10 -17 -2 -17 7 0 9 -5 6 -10 -8 -13 4 -52 14 -46 4 3
8 -1 8 -9 0 -8 -5 -11 -11 -8 -5 4 1 -9 14 -27 13 -18 19 -30 12 -26 -7 4 -12
2 -12 -3 0 -6 5 -11 10 -11 6 0 10 -13 10 -30 0 -16 4 -30 9 -30 5 0 12 -7 15
-16 4 -10 2 -13 -7 -8 -6 4 -4 -2 6 -13 9 -11 17 -29 17 -41 0 -13 6 -22 15
-22 9 0 12 -6 8 -16 -4 -10 0 -20 10 -26 9 -4 14 -15 11 -23 -4 -8 -1 -15 4
-15 6 0 9 -9 7 -21 -4 -18 -2 -19 13 -8 9 7 14 9 10 5 -4 -5 -2 -16 5 -24 10
-13 9 -14 -2 -7 -7 4 -4 -5 8 -21 12 -16 23 -40 26 -53 2 -14 8 -27 12 -30 5
-3 17 -17 28 -31 19 -23 19 -24 1 -10 -19 15 -19 14 -2 -12 10 -16 26 -28 35
-28 14 0 14 -2 1 -10 -9 -6 -10 -10 -3 -10 6 0 15 -9 18 -20 3 -11 14 -20 23
-20 12 0 13 -3 5 -11 -9 -9 -5 -19 18 -39 29 -28 39 -48 17 -34 -7 4 -8 3 -4
-4 4 -7 14 -12 22 -12 8 0 14 -9 14 -21 0 -11 5 -17 10 -14 6 3 10 -1 10 -9 0
-9 5 -16 11 -16 5 0 7 -5 3 -12 -5 -8 -2 -9 10 -5 14 6 15 3 6 -13 -6 -11 -7
-20 -3 -19 23 4 33 -3 33 -22 0 -11 5 -17 10 -14 6 3 10 0 10 -8 0 -8 10 -19
23 -25 12 -6 16 -11 9 -11 -8 -1 -3 -11 13 -26 14 -14 25 -30 25 -35 0 -6 6
-10 13 -10 6 0 21 -13 32 -28 19 -27 19 -27 0 -13 -11 8 -5 0 12 -16 18 -17
29 -34 25 -38 -4 -5 -2 -5 4 -2 6 3 18 -3 27 -14 9 -10 14 -19 11 -19 -3 0 15
-19 40 -43 25 -23 46 -48 46 -56 0 -11 3 -11 17 0 14 12 15 12 9 0 -6 -9 0
-21 18 -36 14 -12 23 -25 19 -29 -3 -3 4 -6 16 -6 12 0 19 -4 16 -10 -3 -5 -1
-10 5 -10 6 0 8 -5 5 -10 -4 -6 -3 -10 2 -9 19 3 34 -2 29 -10 -3 -5 2 -15 11
-22 14 -12 16 -12 8 0 -5 9 -4 12 3 7 6 -4 9 -13 6 -20 -3 -8 0 -17 7 -22 8
-4 10 -3 5 4 -5 8 -2 10 8 6 9 -3 13 -10 10 -15 -3 -5 1 -9 9 -9 17 0 58 -46
49 -55 -4 -4 0 -5 8 -3 9 2 14 -3 12 -11 -3 -12 -1 -12 14 0 12 9 15 9 10 2
-4 -8 -2 -13 4 -13 6 0 8 -4 5 -10 -5 -9 7 -14 27 -11 4 0 10 -8 13 -19 4 -11
13 -20 21 -20 8 0 14 -5 14 -11 0 -5 4 -7 10 -4 6 4 7 -1 3 -11 -5 -13 -3 -16
10 -11 11 4 17 1 17 -8 0 -7 5 -17 12 -21 7 -5 8 -3 3 5 -6 10 -3 11 13 2 12
-6 24 -17 28 -24 5 -7 0 -6 -12 3 -18 14 -18 14 -5 -2 7 -10 20 -18 28 -18 8
0 11 -5 8 -10 -4 -6 -3 -9 2 -8 14 4 54 -23 48 -33 -4 -5 -1 -9 4 -9 6 0 11 6
11 13 1 6 8 -1 16 -16 8 -15 20 -25 25 -21 6 3 17 -3 25 -15 8 -12 20 -21 25
-21 6 0 17 -7 26 -15 8 -8 18 -13 23 -10 5 3 11 -4 15 -15 4 -11 9 -19 13 -16
15 8 52 -14 52 -31 0 -14 2 -15 9 -5 6 11 15 7 39 -16 19 -19 33 -26 36 -19 3
9 5 8 5 0 1 -7 7 -13 15 -13 8 0 16 -4 18 -9 2 -5 10 -11 18 -13 8 -2 21 -9
29 -16 7 -7 20 -11 28 -8 7 3 16 -1 19 -9 4 -8 10 -12 15 -9 5 3 9 0 9 -5 0
-6 9 -11 21 -11 13 0 18 -4 13 -12 -5 -8 -2 -9 9 -5 11 4 17 1 17 -8 0 -8 5
-15 11 -15 5 0 7 5 4 10 -11 17 7 11 21 -7 8 -11 13 -13 14 -5 0 7 9 3 22 -10
21 -21 22 -21 29 -2 6 16 8 16 8 2 1 -9 6 -20 13 -24 7 -5 9 -2 4 7 -6 10 -4
10 6 -1 7 -8 22 -17 33 -18 11 -2 26 -9 34 -15 12 -9 13 -9 7 1 -4 6 -2 12 3
12 6 0 11 -8 11 -17 0 -14 2 -15 9 -4 5 8 10 9 12 3 2 -6 21 -12 42 -14 20 -1
37 -6 37 -11 0 -5 8 -7 18 -5 10 3 23 -1 30 -9 7 -7 19 -10 25 -6 19 12 37 12
37 1 0 -7 5 -6 14 1 8 7 17 8 20 3 9 -14 56 -21 56 -8 0 6 5 4 10 -4 6 -9 10
-11 10 -3 0 7 6 10 14 7 8 -3 17 0 21 6 5 8 11 8 21 -1 11 -9 14 -8 14 2 0 12
2 12 9 0 6 -9 10 -10 16 -2 5 9 10 9 21 0 12 -9 13 -9 9 2 -4 10 2 15 15 17
43 4 50 6 50 14 0 5 5 6 10 3 6 -4 17 -1 25 5 8 6 20 8 27 4 9 -5 8 -2 -2 12
-8 10 -10 16 -5 11 4 -4 18 1 29 10 16 14 18 14 11 3 -6 -10 -4 -9 6 2 9 9 20
14 23 10 4 -3 4 2 0 12 -5 14 -4 17 4 12 8 -4 16 3 22 19 5 14 16 28 24 31 9
3 12 12 9 21 -5 12 -3 14 7 8 10 -6 12 -4 7 8 -3 10 -2 17 4 17 6 0 7 5 4 10
-3 6 -1 10 5 10 6 0 8 5 5 10 -4 6 -1 17 5 25 7 8 10 24 7 35 -3 11 -2 18 3
15 4 -3 10 2 13 9 3 8 1 17 -6 20 -8 3 -8 5 2 5 11 1 11 4 1 16 -7 8 -8 15 -3
15 5 0 9 9 10 20 1 12 -3 18 -9 14 -6 -4 -6 1 1 14 13 25 14 35 3 28 -10 -6
-9 24 1 41 4 6 1 14 -5 16 -10 4 -10 6 0 6 9 1 8 9 -5 28 -10 15 -12 24 -5 20
6 -5 12 -4 12 2 0 6 -6 11 -12 11 -9 0 -8 4 2 10 8 5 10 10 3 10 -6 0 -9 9 -6
20 3 11 1 20 -5 20 -5 0 -9 14 -8 30 1 17 -2 30 -7 30 -4 0 -5 5 -2 10 3 6 -2
10 -12 10 -14 0 -15 2 -5 9 16 10 15 23 -2 33 -7 4 -12 19 -11 32 2 14 -5 32
-15 41 -11 10 -15 24 -12 42 4 20 2 24 -8 18 -10 -6 -12 -4 -7 9 4 10 1 19 -8
23 -13 4 -13 8 -3 21 10 12 10 14 1 8 -9 -5 -13 0 -13 14 0 12 -4 18 -10 15
-6 -3 -10 1 -10 9 0 27 -23 66 -34 59 -7 -4 -6 -1 1 8 10 12 8 18 -7 29 -11 8
-20 23 -20 33 0 10 -4 15 -10 12 -5 -3 -7 0 -4 8 3 8 0 18 -5 22 -6 3 -8 12
-5 18 4 7 4 9 -1 5 -10 -9 -34 21 -35 44 0 9 -4 18 -9 20 -5 2 -11 10 -13 18
-2 8 -12 23 -23 33 -11 10 -14 16 -8 12 8 -4 11 -1 7 9 -3 9 -11 14 -17 13 -6
-1 -13 8 -15 21 -2 12 -10 22 -19 22 -9 0 -13 6 -10 14 3 8 -1 17 -9 20 -9 3
-12 10 -9 16 3 5 1 10 -5 10 -6 0 -8 5 -5 10 4 6 3 10 -2 9 -22 -4 -32 2 -27
16 4 8 -1 17 -10 21 -9 3 -13 10 -10 15 3 5 -2 9 -11 9 -9 0 -13 5 -10 10 3 6
2 10 -3 10 -5 0 -12 9 -15 20 -3 11 -11 19 -17 18 -7 -2 -14 5 -15 15 -2 10
-11 24 -21 31 -11 9 -14 18 -9 27 7 11 5 11 -10 -1 -11 -9 -16 -10 -11 -3 4 8
-3 23 -17 37 -14 14 -22 27 -19 30 3 3 0 6 -7 6 -7 0 -9 5 -6 10 6 9 -8 14
-28 11 -5 -1 -6 3 -2 9 3 5 1 10 -5 10 -6 0 -8 5 -5 10 3 6 -2 10 -11 10 -10
0 -15 3 -11 6 3 3 -5 16 -19 29 -13 12 -24 27 -24 34 0 6 -7 11 -16 11 -9 0
-12 5 -8 12 5 7 2 9 -9 5 -12 -4 -14 -2 -10 10 4 11 2 14 -5 9 -7 -4 -12 -1
-12 8 0 9 -7 16 -16 16 -8 0 -12 5 -9 10 3 6 -1 10 -10 10 -9 0 -13 5 -10 10
3 6 1 10 -5 10 -6 0 -8 4 -5 10 3 6 -1 7 -9 4 -11 -4 -16 0 -16 10 0 9 -7 16
-16 16 -8 0 -12 5 -9 10 3 6 2 10 -4 10 -13 0 -61 47 -54 53 2 3 -10 11 -26
18 -17 8 -31 20 -31 27 0 7 -4 10 -10 7 -5 -3 -10 1 -10 10 0 8 -10 19 -22 24
-13 5 -31 17 -40 28 -9 10 -28 27 -42 38 -13 10 -22 23 -20 27 2 4 -4 5 -15 3
-15 -3 -18 0 -14 13 6 15 5 16 -12 2 -17 -14 -18 -14 -6 8 10 19 10 23 -1 21
-26 -3 -39 1 -33 11 3 6 -1 10 -9 10 -8 0 -20 8 -25 18 -6 9 -11 13 -11 9 0
-8 -21 7 -48 36 -9 9 -21 17 -27 17 -6 0 -17 9 -25 20 -8 11 -22 20 -31 20 -9
0 -21 10 -28 23 -9 17 -10 18 -6 2 6 -19 5 -19 -14 2 -12 12 -37 29 -56 39
-19 9 -32 21 -28 27 4 6 0 8 -10 4 -12 -4 -17 -1 -17 10 0 13 -3 13 -16 3 -8
-8 -14 -9 -12 -4 2 5 0 9 -3 9 -3 0 -13 8 -23 18 -10 9 -22 15 -27 12 -5 -4
-9 1 -9 10 0 9 -4 13 -10 10 -5 -3 -10 -1 -10 5 0 6 -4 9 -9 5 -5 -3 -16 1
-24 10 -8 8 -21 16 -28 17 -8 2 -19 10 -26 19 -7 9 -23 15 -37 14 -14 -2 -24
1 -23 7 1 6 -7 12 -17 14 -10 1 -23 9 -27 16 -7 10 -9 10 -9 -2 0 -10 -3 -11
-8 -4 -4 7 -16 14 -27 16 -11 2 -19 9 -18 16 2 6 -4 9 -12 6 -9 -4 -23 0 -32
7 -14 12 -16 12 -8 -1 7 -13 6 -13 -11 1 -10 8 -29 14 -41 13 -13 -1 -20 3
-16 9 4 6 -2 8 -15 5 -12 -4 -20 -2 -17 2 3 5 1 11 -5 15 -5 3 -10 0 -10 -7 0
-10 -2 -10 -9 1 -5 8 -15 12 -23 9 -8 -3 -22 0 -32 8 -14 10 -24 11 -39 2 -16
-8 -19 -8 -14 4 4 11 -1 14 -18 10 -12 -2 -26 1 -30 8 -5 8 -10 8 -21 -1 -11
-9 -14 -9 -14 0 0 8 -5 9 -19 2 -10 -6 -21 -7 -25 -4 -11 12 -36 12 -36 0 0
-6 -6 -4 -12 5 -9 11 -20 13 -33 8z"/>
<path d="M3324 5271 c5 -8 0 -10 -17 -7 -18 3 -24 0 -23 -12 0 -10 -5 -16 -14
-14 -10 1 -9 -2 4 -13 18 -14 18 -15 2 -15 -11 0 -16 -6 -14 -18 2 -11 -4 -27
-12 -38 -14 -18 -14 -18 5 -4 18 14 18 12 -3 -23 -12 -21 -16 -35 -10 -31 10
6 10 4 2 -7 -6 -8 -10 -24 -9 -37 1 -13 -3 -26 -8 -29 -6 -3 -7 -1 -3 5 3 6 2
13 -3 17 -10 6 -7 -27 4 -46 4 -6 -3 -21 -16 -35 -12 -13 -19 -24 -15 -24 3 0
0 -13 -8 -29 -12 -22 -12 -31 -3 -41 7 -7 8 -10 2 -8 -11 7 -30 -11 -31 -29
-3 -39 -5 -44 -14 -38 -13 8 -8 -18 5 -27 6 -5 3 -8 -6 -8 -10 0 -16 -7 -15
-17 0 -10 -4 -17 -10 -16 -7 1 -10 -6 -7 -17 3 -12 0 -20 -6 -20 -7 0 -9 -4
-6 -10 3 -5 1 -10 -5 -10 -6 0 -8 -5 -5 -10 4 -6 -6 -27 -21 -48 -16 -20 -29
-43 -30 -50 -5 -30 -14 -43 -26 -36 -9 6 -9 3 1 -9 11 -14 11 -18 -3 -23 -9
-3 -16 -12 -16 -20 0 -8 -5 -14 -11 -14 -5 0 -8 -4 -5 -9 3 -5 -1 -12 -10 -15
-9 -4 -14 -9 -11 -13 4 -3 -1 -12 -11 -20 -11 -10 -12 -12 -2 -8 10 4 9 2 -2
-8 -10 -8 -15 -17 -11 -20 3 -4 1 -7 -5 -7 -7 0 -12 -7 -12 -15 0 -8 -7 -15
-15 -15 -8 0 -14 -6 -12 -12 1 -7 -3 -12 -10 -11 -7 2 -10 -4 -7 -12 3 -8 -3
-19 -15 -27 -22 -14 -30 -34 -8 -22 6 4 -8 -12 -33 -36 -25 -24 -36 -37 -25
-30 11 8 8 1 -8 -14 -15 -15 -25 -31 -22 -36 4 -6 -2 -7 -11 -3 -11 4 -15 3
-10 -5 3 -6 -3 -16 -14 -22 -11 -6 -18 -15 -15 -21 4 -5 1 -8 -6 -7 -7 2 -18
-7 -24 -20 -7 -12 -16 -26 -20 -30 -5 -4 -5 0 0 8 5 8 -4 4 -18 -9 -15 -14
-27 -30 -27 -38 0 -7 -7 -13 -15 -13 -9 0 -18 -7 -21 -15 -4 -8 -10 -12 -15
-9 -5 3 -6 -3 -2 -12 4 -11 3 -15 -5 -10 -6 3 -14 0 -19 -7 -4 -7 -16 -17 -27
-20 -11 -5 -16 -13 -12 -23 3 -8 2 -12 -4 -9 -5 3 -21 -6 -35 -21 -14 -15 -25
-23 -25 -18 0 5 -4 4 -8 -1 -4 -6 -19 -16 -34 -24 -15 -8 -25 -18 -22 -23 3
-5 -4 -12 -16 -15 -14 -4 -19 -11 -15 -22 3 -8 3 -12 -1 -8 -4 4 -14 1 -22 -6
-13 -10 -14 -9 -7 2 5 10 4 12 -3 7 -7 -4 -12 -15 -12 -24 0 -15 -2 -15 -10
-2 -7 11 -10 11 -10 2 0 -7 -5 -10 -10 -7 -6 4 -9 1 -8 -7 2 -7 -5 -12 -14
-12 -10 1 -18 -5 -18 -13 0 -8 -4 -11 -10 -8 -5 3 -10 1 -10 -5 0 -6 -4 -8
-10 -5 -5 3 -10 1 -10 -5 0 -6 -4 -8 -10 -5 -5 3 -10 2 -10 -4 0 -13 -60 -42
-73 -34 -6 3 -7 1 -3 -5 4 -7 2 -12 -4 -12 -6 0 -8 -5 -4 -12 6 -10 4 -10 -8
0 -13 10 -17 10 -22 -3 -3 -9 -10 -13 -16 -10 -5 3 -10 2 -10 -4 0 -6 -10 -15
-21 -22 -17 -9 -20 -8 -13 3 4 7 -2 5 -14 -6 -12 -10 -28 -16 -37 -12 -9 3
-14 2 -11 -2 3 -5 -9 -17 -26 -27 -17 -10 -27 -12 -23 -5 4 7 -3 5 -17 -4 -14
-9 -28 -13 -33 -9 -4 5 -5 -1 -1 -11 5 -16 4 -17 -9 -6 -14 11 -19 7 -16 -13
1 -4 -8 -3 -20 4 -16 8 -20 8 -14 -1 5 -8 1 -11 -13 -8 -11 2 -30 -6 -43 -17
-12 -11 -19 -14 -15 -7 4 6 2 12 -3 12 -6 0 -11 -4 -11 -9 0 -5 -11 -8 -25 -7
-14 2 -32 -5 -41 -16 -14 -14 -19 -16 -26 -6 -6 10 -8 10 -8 -1 0 -7 -6 -11
-15 -7 -8 3 -15 1 -15 -3 0 -5 -7 -12 -16 -15 -10 -4 -13 -2 -8 7 6 9 5 9 -7
0 -8 -6 -27 -10 -41 -9 -15 2 -25 -1 -22 -6 4 -5 -2 -9 -12 -7 -24 3 -75 -11
-93 -25 -11 -8 -13 -8 -7 2 4 6 2 12 -3 12 -6 0 -11 -4 -11 -8 0 -4 -11 -9
-25 -10 -47 -3 -55 -5 -55 -14 0 -4 -7 -8 -16 -8 -9 0 -12 5 -8 12 5 7 3 8 -7
2 -22 -13 -43 -14 -51 -1 -6 9 -8 9 -8 0 0 -6 5 -15 10 -18 6 -4 7 -11 4 -17
-4 -6 1 -6 14 1 16 9 24 7 38 -7 17 -16 18 -16 11 2 -6 14 -4 17 9 12 8 -3 18
-6 20 -6 3 0 2 -6 -3 -12 -4 -7 5 -5 20 5 25 16 26 16 20 0 -6 -15 -4 -16 9
-5 13 10 18 10 24 1 5 -8 3 -9 -6 -4 -8 5 -11 4 -7 -2 3 -5 19 -8 35 -5 16 2
33 -1 36 -7 5 -8 13 -8 28 0 15 8 19 8 14 0 -5 -7 2 -11 16 -11 13 0 30 -6 37
-12 11 -10 13 -10 7 0 -4 6 -2 12 3 12 6 0 11 -4 11 -9 0 -5 7 -12 16 -15 10
-4 13 -2 8 7 -5 9 -4 9 6 0 7 -6 19 -9 28 -6 10 4 13 2 8 -5 -4 -8 -2 -10 8
-6 8 3 23 1 34 -5 13 -7 22 -7 31 2 10 9 11 8 5 -7 -6 -16 -4 -18 14 -14 16 4
22 2 22 -9 0 -13 3 -13 15 -3 8 7 15 8 15 3 0 -15 58 -33 64 -19 2 6 5 3 5 -8
1 -13 6 -17 21 -13 11 3 18 1 14 -4 -3 -5 2 -9 12 -9 9 0 23 -8 30 -17 13 -17
14 -17 8 2 -6 20 -5 20 10 1 9 -11 19 -17 22 -13 4 4 13 -1 21 -11 8 -9 11
-11 8 -4 -6 11 -3 12 14 2 12 -6 25 -18 28 -26 4 -12 8 -12 21 -2 12 10 14 10
8 1 -5 -9 0 -13 18 -13 16 0 27 -7 31 -20 4 -11 10 -18 15 -15 14 8 40 -6 33
-19 -3 -6 -2 -8 2 -3 5 4 20 -3 34 -15 19 -17 22 -18 11 -4 -15 19 -14 19 13
2 15 -10 27 -22 27 -27 0 -5 6 -8 13 -7 6 2 11 -3 9 -10 -1 -6 1 -11 5 -11 19
3 32 -3 59 -26 16 -14 37 -25 47 -25 10 0 16 -4 13 -8 -2 -4 -1 -14 5 -22 7
-13 9 -13 9 -1 0 11 4 10 13 -4 9 -11 19 -15 27 -10 9 5 11 4 6 -3 -4 -7 -2
-12 4 -12 6 0 9 -4 6 -8 -2 -4 5 -14 17 -22 21 -12 21 -12 8 6 -8 10 2 3 21
-16 19 -19 34 -39 33 -45 -1 -5 0 -7 2 -2 8 13 23 7 23 -9 0 -8 3 -13 8 -11 4
3 13 -1 20 -9 7 -8 9 -14 5 -15 -4 0 2 -4 14 -9 14 -6 21 -15 17 -24 -4 -11 0
-13 18 -9 17 3 19 2 9 -5 -11 -8 -9 -11 8 -17 11 -3 21 -13 21 -22 0 -10 6
-13 16 -9 8 3 12 2 9 -4 -3 -6 -1 -10 4 -10 6 0 11 -7 11 -17 0 -9 3 -13 6
-10 9 9 45 -33 38 -45 -3 -4 0 -7 7 -6 7 2 13 -2 14 -9 0 -6 4 -15 9 -20 5 -5
6 -2 1 7 -7 13 -6 13 8 0 9 -8 17 -22 19 -29 2 -8 16 -26 31 -39 17 -15 26
-31 22 -40 -5 -13 -3 -13 12 -1 11 9 14 10 9 1 -4 -7 -1 -15 8 -18 9 -3 16
-10 16 -16 0 -5 -6 -6 -12 -3 -7 3 -3 -2 10 -11 12 -9 22 -23 22 -30 0 -8 5
-14 10 -14 6 0 10 -7 10 -15 0 -8 5 -15 10 -15 6 0 10 -7 10 -15 0 -8 5 -15
11 -15 5 0 7 -4 4 -10 -3 -5 2 -10 12 -10 14 0 15 -2 4 -9 -10 -7 -9 -12 9
-24 11 -8 22 -24 23 -35 0 -11 5 -18 9 -16 4 3 8 -2 8 -10 0 -9 5 -16 11 -16
5 0 8 -4 4 -10 -3 -5 3 -18 14 -29 11 -11 17 -22 14 -25 -4 -3 -1 -6 6 -6 7 0
10 -4 7 -9 -3 -5 4 -21 16 -37 13 -15 18 -25 11 -21 -7 5 -9 0 -6 -13 3 -11
10 -20 16 -20 6 0 7 -3 4 -7 -4 -3 1 -12 11 -20 9 -8 11 -11 3 -8 -9 5 -8 0 4
-18 9 -15 13 -32 9 -38 -4 -8 -3 -9 4 -5 8 5 12 0 12 -13 0 -10 6 -22 13 -24
8 -4 8 -6 -2 -6 -11 -1 -10 -5 5 -17 10 -8 12 -12 4 -8 -12 7 -13 5 -3 -8 7
-8 10 -18 6 -21 -3 -4 -1 -7 6 -7 7 0 9 -4 6 -10 -3 -5 0 -10 7 -10 9 0 9 -3
-2 -10 -11 -7 -11 -10 -2 -10 7 0 10 -4 7 -10 -3 -5 -2 -10 3 -10 6 0 13 -7
16 -16 3 -8 2 -12 -4 -9 -6 3 -10 1 -10 -4 0 -6 7 -11 16 -11 13 0 14 -3 4
-15 -10 -12 -9 -16 4 -21 9 -3 16 -10 16 -16 0 -5 -6 -6 -12 -1 -7 4 -5 -6 6
-21 10 -16 14 -26 9 -23 -5 4 -10 0 -10 -8 0 -8 5 -11 10 -8 6 4 8 -3 5 -15
-4 -12 -3 -20 2 -17 4 3 10 -2 14 -10 3 -8 1 -17 -5 -20 -5 -4 -6 -12 -2 -18
4 -7 8 -18 10 -26 1 -8 7 -17 13 -21 9 -6 9 -9 -1 -13 -8 -3 -4 -6 9 -6 12 -1
24 0 25 2 2 1 11 -4 20 -12 11 -9 17 -10 17 -2 0 6 -4 12 -10 12 -5 1 -15 2
-22 3 -6 0 -13 8 -15 16 -3 9 -1 11 4 5 13 -16 52 -15 46 1 -3 8 0 21 7 29 10
12 10 15 -1 15 -9 1 -8 4 4 11 14 8 16 14 6 25 -7 8 -7 14 -1 14 5 0 13 7 16
16 4 10 2 13 -7 8 -8 -5 -7 -2 2 9 11 14 11 17 0 17 -11 0 -11 2 1 10 8 5 16
14 16 20 1 5 2 11 4 13 3 4 11 41 14 69 2 15 9 35 16 43 8 9 15 24 16 33 3 32
9 47 24 59 8 6 12 15 7 19 -4 4 -7 2 -7 -4 0 -7 -5 -12 -12 -12 -6 0 0 12 14
28 22 22 25 31 16 46 -8 14 -7 17 1 12 6 -4 11 -2 11 4 0 6 4 9 9 6 4 -3 7 6
5 19 -1 14 2 25 7 25 6 0 7 4 4 10 -3 5 -1 10 5 10 7 0 9 7 6 16 -3 8 -2 12 4
9 6 -3 10 3 10 14 0 12 5 21 10 21 6 0 10 9 10 19 0 11 7 27 16 35 8 9 12 21
8 27 -4 8 -3 9 4 5 8 -5 12 1 12 14 0 14 5 20 13 17 9 -3 13 3 13 17 -1 12 4
20 12 18 10 -2 10 2 1 20 -12 22 -11 22 7 8 10 -8 16 -11 12 -6 -4 5 6 24 22
44 15 19 27 43 25 53 -2 10 1 22 7 25 7 5 8 2 4 -7 -4 -8 0 -5 9 6 9 11 21 19
27 17 6 -2 5 5 -3 14 -12 16 -12 17 4 11 11 -4 16 -3 12 3 -3 6 5 20 19 32 14
13 27 30 28 38 4 21 22 39 32 32 5 -3 6 2 3 12 -4 9 -3 15 2 12 5 -3 15 2 22
11 12 14 12 16 0 8 -10 -6 -12 -4 -7 4 5 7 14 10 21 7 8 -3 11 2 8 15 -3 10
-1 19 5 19 17 0 62 46 54 55 -4 5 2 5 13 1 11 -4 17 -5 14 -1 -8 7 71 91 83
87 5 -1 7 2 3 8 -3 5 -1 10 5 10 6 0 8 5 4 12 -5 8 -2 9 10 5 10 -4 15 -3 11
3 -3 6 -1 10 5 10 6 0 8 5 4 12 -5 8 0 9 14 6 12 -4 20 -3 17 1 -2 5 3 17 11
27 9 10 13 12 9 4 -4 -8 6 -1 20 15 15 17 24 24 21 18 -5 -9 -2 -11 9 -7 9 4
14 13 11 20 -5 13 6 19 27 15 4 -1 10 6 13 14 4 8 13 15 20 15 8 0 17 7 21 16
3 8 12 13 19 10 8 -3 11 0 7 10 -3 8 -2 14 3 13 16 -4 64 20 64 31 0 6 5 8 12
4 8 -5 9 -2 4 11 -5 14 -3 15 6 7 15 -11 42 10 30 24 -4 5 2 2 12 -6 13 -10
17 -10 12 -2 -4 7 -2 12 4 12 6 0 8 5 4 13 -6 9 -5 9 7 0 12 -10 18 -9 29 7 7
10 17 17 21 15 4 -3 9 2 13 10 3 8 11 15 17 15 8 0 8 -5 -1 -17 -7 -10 -1 -6
13 9 14 15 28 24 31 21 3 -4 15 2 25 11 11 10 25 15 32 10 8 -4 10 -3 5 4 -4
7 -1 13 8 13 29 3 32 4 50 22 10 9 20 17 23 17 3 0 -1 -8 -8 -17 -13 -17 -13
-17 7 0 11 9 26 17 33 17 7 0 9 4 6 10 -4 6 1 7 11 3 13 -5 15 -3 9 8 -8 12
-6 12 8 0 12 -9 17 -10 17 -2 0 7 5 9 10 6 6 -3 10 -1 10 5 0 6 5 8 10 5 6 -3
10 0 10 7 0 11 2 10 9 0 6 -11 10 -10 15 3 3 10 12 15 21 11 8 -3 17 0 21 5 3
6 15 9 25 6 12 -3 17 -1 12 6 -4 6 0 8 10 4 10 -4 17 -2 17 4 0 6 7 9 15 5 10
-3 15 1 16 12 0 14 2 14 9 -3 5 -12 9 -14 9 -6 1 8 4 11 8 8 3 -4 12 1 20 11
14 16 14 16 9 -1 -5 -17 -4 -17 16 -2 27 18 41 20 33 3 -4 -7 -1 -6 7 2 7 9
23 15 36 14 16 -1 21 3 18 13 -4 9 -2 11 7 6 16 -10 38 -10 58 -1 9 4 21 2 26
-3 8 -8 13 -7 18 2 6 8 4 10 -5 4 -9 -5 -11 -4 -6 3 10 17 22 15 42 -5 17 -17
18 -17 11 0 -5 13 -2 17 11 15 10 -2 17 3 16 13 -1 9 5 16 12 16 9 0 10 -5 4
-18 -7 -12 -6 -19 5 -22 9 -4 12 -1 9 7 -4 10 3 13 25 10 17 -2 33 1 37 7 4 8
10 7 16 -2 8 -11 9 -11 6 -1 -2 8 -7 13 -12 12 -5 -1 -13 4 -17 12 -5 7 -9 8
-9 3 0 -6 -9 -11 -20 -12 -11 -1 -18 1 -16 5 2 4 -9 8 -25 8 -16 1 -29 -3 -29
-10 0 -6 -5 -4 -10 5 -6 10 -20 15 -37 13 -15 -1 -31 3 -35 9 -6 9 -8 8 -8 -2
0 -11 -4 -10 -13 4 -9 12 -16 14 -21 7 -4 -6 -13 -9 -21 -6 -8 4 -12 11 -8 17
4 6 1 7 -8 1 -21 -13 -40 -14 -32 -1 4 6 0 8 -10 4 -10 -3 -17 -2 -17 3 0 6
-5 10 -11 10 -5 0 -7 -4 -4 -10 3 -6 -1 -7 -9 -4 -9 3 -14 9 -12 13 2 3 -12 7
-31 7 -19 1 -39 8 -44 15 -7 12 -9 11 -9 -1 0 -9 -3 -11 -8 -5 -18 25 -40 36
-48 24 -5 -8 -3 -9 6 -4 9 6 11 4 6 -4 -6 -9 -12 -9 -25 3 -10 9 -25 16 -33
16 -9 0 -19 6 -21 13 -4 9 -6 9 -6 -1 -1 -10 -5 -10 -17 2 -8 9 -20 14 -25 11
-5 -4 -9 -1 -9 6 0 8 -5 7 -17 -2 -9 -8 -14 -9 -10 -3 4 7 -5 19 -19 29 -15 9
-23 12 -20 6 4 -6 2 -11 -3 -11 -6 0 -11 5 -11 11 0 5 -4 7 -10 4 -5 -3 -10
-2 -10 3 0 6 -7 13 -16 16 -10 4 -13 2 -9 -7 4 -6 1 -5 -7 3 -7 9 -20 15 -28
15 -8 0 -22 6 -30 12 -8 7 -19 13 -24 12 -5 0 -12 4 -16 11 -4 6 -17 12 -29
13 -13 1 -34 12 -48 25 -14 13 -27 21 -30 18 -3 -3 -16 7 -30 22 -13 15 -22
21 -18 15 3 -7 1 -13 -4 -13 -6 0 -11 7 -11 16 0 8 -4 13 -9 9 -5 -3 -16 1
-24 9 -8 8 -17 12 -21 9 -3 -4 -6 1 -6 10 0 9 -7 17 -16 17 -9 0 -25 10 -35
22 -11 11 -19 16 -19 9 0 -9 -5 -8 -15 3 -8 8 -15 19 -15 25 0 6 -7 7 -17 4
-11 -4 -14 -3 -9 5 4 7 3 12 -3 12 -12 0 -82 46 -81 54 0 3 -3 7 -7 8 -14 3
-31 23 -27 29 5 9 -25 21 -36 14 -4 -3 -6 5 -4 17 2 13 2 18 -2 11 -4 -8 -10
-7 -24 4 -10 9 -17 20 -15 24 3 4 -3 13 -12 20 -11 10 -14 10 -9 2 5 -9 2 -11
-8 -7 -9 3 -13 10 -10 16 3 5 -4 12 -16 15 -16 4 -18 8 -8 14 10 7 9 9 -4 9
-9 0 -20 5 -24 12 -5 7 -3 8 6 3 9 -5 11 -4 6 3 -4 7 -13 12 -21 12 -7 0 -16
7 -19 16 -3 8 -11 12 -16 9 -6 -4 -10 -3 -9 2 3 19 -2 33 -12 33 -5 0 -7 -5
-3 -12 4 -7 3 -8 -4 -4 -6 4 -9 13 -5 21 3 8 0 15 -7 15 -6 0 -8 5 -5 10 3 6
-1 10 -9 10 -8 0 -18 9 -21 20 -4 11 -11 18 -16 14 -5 -3 -8 -2 -7 3 2 9 -30
73 -38 73 -2 0 0 -10 6 -22 11 -22 10 -22 -4 -4 -9 11 -16 28 -16 38 0 10 -7
18 -15 18 -8 0 -15 5 -15 10 0 22 -2 25 -23 37 -12 7 -16 12 -9 13 6 0 12 5
12 11 0 5 -4 8 -9 4 -10 -6 -37 34 -33 48 1 5 -1 6 -6 3 -9 -6 -37 42 -33 57
1 5 -3 6 -8 3 -5 -4 -12 -2 -16 4 -3 5 0 10 7 10 9 1 7 5 -4 14 -10 7 -18 21
-18 30 0 8 -9 21 -19 28 -15 9 -17 15 -9 25 7 9 7 13 -1 13 -6 0 -11 7 -11 16
0 9 -5 12 -12 8 -8 -5 -9 -2 -5 9 4 12 1 17 -11 17 -15 0 -15 2 -2 10 10 6 11
10 3 10 -7 0 -13 9 -13 20 0 11 -4 20 -9 20 -6 0 -8 9 -6 20 2 11 -1 19 -7 17
-6 -1 -13 4 -16 12 -3 10 0 11 9 5 12 -7 12 -5 0 9 -7 9 -17 15 -20 12 -4 -2
-8 2 -8 10 0 8 4 12 8 10 4 -3 2 6 -4 19 -7 13 -16 22 -22 18 -5 -3 -4 2 4 11
9 11 10 17 2 17 -6 0 -11 7 -11 15 0 8 -6 15 -12 15 -9 0 -8 3 2 10 12 8 12
10 -2 15 -10 4 -15 16 -13 31 1 13 -1 24 -5 24 -4 0 -11 7 -14 16 -4 10 -2 13
7 8 9 -6 9 -5 0 8 -7 8 -10 18 -6 21 3 4 -2 7 -13 7 -14 0 -16 2 -5 9 11 7 11
9 0 14 -10 4 -10 6 -1 6 6 1 12 6 12 12 0 5 -4 7 -10 4 -6 -3 -7 1 -4 9 3 9 1
16 -4 16 -6 0 -9 9 -7 20 3 13 -2 20 -13 21 -10 0 -12 3 -4 6 6 2 12 9 12 14
0 6 -4 8 -9 4 -5 -3 -13 0 -17 6 -4 7 -3 9 4 5 22 -13 25 18 2 36 -20 16 -20
18 -4 18 16 0 16 2 4 9 -8 6 -19 7 -25 3 -5 -3 -4 1 3 10 10 13 10 18 1 24 -8
4 -9 3 -5 -5z m-914 -1475 c0 -2 -7 -7 -16 -10 -8 -3 -12 -2 -9 4 6 10 25 14
25 6z m-770 -396 c0 -5 -5 -10 -11 -10 -5 0 -7 5 -4 10 3 6 8 10 11 10 2 0 4
-4 4 -10z m-210 -54 c0 -2 -8 -10 -17 -17 -16 -13 -17 -12 -4 4 13 16 21 21
21 13z m-108 -37 c2 -2 1 -3 -1 -1 -3 1 -14 -4 -26 -12 -14 -9 -27 -11 -36 -5
-12 7 -12 9 1 10 8 1 18 1 23 0 4 0 7 3 7 8 0 9 27 9 32 0z m2371 -1094 c-3
-9 -8 -14 -10 -11 -3 3 -2 9 2 15 9 16 15 13 8 -4z"/>
<path d="M3670 5191 c0 -6 4 -13 10 -16 6 -3 7 1 4 9 -7 18 -14 21 -14 7z"/>
<path d="M2919 5153 c-13 -16 -12 -17 4 -4 9 7 17 15 17 17 0 8 -8 3 -21 -13z"/>
<path d="M3201 4991 c-8 -6 -9 -11 -3 -15 6 -3 14 -1 17 5 9 14 2 20 -14 10z"/>
<path d="M5544 3302 c0 -14 6 -19 19 -16 11 2 22 6 26 10 3 4 -1 5 -9 2 -8 -3
-20 2 -25 9 -9 12 -11 11 -11 -5z"/>
<path d="M1130 3301 c0 -5 5 -13 10 -16 6 -3 10 -2 10 4 0 5 -4 13 -10 16 -5
3 -10 2 -10 -4z"/>
<path d="M5513 3295 c0 -8 4 -12 9 -9 4 3 8 9 8 15 0 5 -4 9 -8 9 -5 0 -9 -7
-9 -15z"/>
<path d="M716 3134 c-15 -9 -25 -11 -22 -5 10 15 -7 14 -23 -1 -11 -11 -12
-10 -6 2 7 12 6 13 -6 4 -8 -6 -27 -11 -44 -12 -16 -1 -32 -7 -33 -12 -2 -6
-8 -8 -13 -4 -5 3 -9 -1 -9 -8 0 -9 -3 -9 -10 2 -7 12 -10 12 -10 1 0 -7 -6
-11 -15 -7 -9 3 -15 0 -15 -10 0 -8 -4 -13 -9 -10 -5 3 -11 -1 -15 -9 -3 -8
-12 -12 -19 -9 -8 3 -17 -2 -21 -11 -3 -9 -10 -14 -15 -10 -5 3 -13 0 -17 -6
-5 -8 -2 -10 7 -5 8 5 -4 -9 -26 -29 -22 -21 -32 -32 -22 -25 9 7 17 10 17 8
0 -10 -37 -47 -42 -42 -3 3 -8 -2 -12 -11 -3 -9 -2 -13 4 -10 6 3 7 -1 4 -9
-3 -9 -9 -14 -13 -11 -4 2 -7 -9 -6 -25 1 -16 -2 -27 -7 -24 -4 3 -8 -7 -8
-21 0 -15 -5 -35 -10 -46 -8 -14 -7 -19 2 -19 9 0 9 -3 -2 -10 -12 -8 -12 -10
-1 -10 11 0 10 -5 -3 -25 -14 -21 -14 -24 -1 -19 14 6 14 3 3 -21 -10 -22 -9
-28 3 -36 12 -7 12 -9 -1 -9 -12 0 -13 -2 -1 -9 11 -7 11 -9 0 -14 -11 -4 -11
-6 -1 -6 10 -1 10 -6 1 -22 -9 -17 -8 -20 2 -14 9 6 11 3 6 -8 -3 -10 -2 -17
3 -17 6 0 10 -5 10 -11 0 -6 -6 -7 -12 -2 -7 4 -5 -6 6 -21 18 -28 18 -29 0
-22 -17 6 -17 6 -1 -12 9 -10 17 -28 17 -40 0 -12 5 -22 12 -22 9 0 9 -3 1
-11 -12 -12 2 -59 18 -59 5 0 5 -7 2 -17 -5 -11 -3 -14 6 -8 10 6 11 3 1 -15
-7 -13 -8 -20 -2 -16 14 8 21 -4 24 -42 1 -17 6 -28 10 -26 4 3 8 -4 8 -15 0
-12 6 -21 13 -21 8 0 7 -4 -3 -10 -13 -8 -12 -10 3 -10 10 0 15 -5 12 -10 -3
-6 3 -23 14 -39 12 -16 21 -39 21 -50 0 -12 6 -21 16 -21 8 0 12 -4 9 -10 -3
-5 0 -10 7 -10 11 0 10 -2 0 -9 -11 -6 -10 -10 4 -15 9 -3 14 -9 11 -13 -4 -3
1 -12 11 -20 11 -10 12 -12 2 -8 -12 5 -12 4 1 -7 16 -13 19 -19 19 -39 0 -5
5 -7 12 -3 7 5 9 2 6 -7 -5 -14 16 -42 25 -33 2 3 3 -7 1 -21 -2 -21 0 -24 11
-15 11 9 12 7 8 -11 -4 -15 -3 -20 5 -15 8 5 12 -1 12 -14 0 -12 4 -18 10 -15
5 3 10 -3 10 -14 0 -15 7 -21 23 -21 12 0 17 -4 12 -8 -16 -11 -12 -37 5 -37
8 0 14 -8 14 -17 -1 -10 3 -16 8 -15 6 1 18 -13 27 -30 9 -18 22 -33 29 -33 7
0 10 -4 7 -10 -3 -5 -1 -10 4 -10 6 0 11 -6 11 -14 0 -8 10 -22 22 -30 12 -9
19 -16 14 -16 -5 0 -1 -9 9 -20 10 -11 22 -17 26 -14 5 3 6 -1 3 -9 -3 -8 9
-25 31 -41 19 -15 35 -31 35 -36 0 -17 33 -49 43 -43 6 4 8 0 4 -10 -3 -9 1
-18 10 -21 9 -4 13 -13 9 -22 -3 -8 -2 -12 4 -9 6 3 10 1 10 -5 0 -6 4 -8 10
-5 5 3 10 -1 10 -9 0 -9 5 -16 11 -16 5 0 7 -4 4 -10 -3 -6 1 -7 9 -4 9 3 16
1 16 -6 0 -15 26 -41 34 -33 3 4 6 -1 6 -10 0 -9 7 -17 16 -17 8 0 13 -3 11
-7 -3 -5 1 -14 9 -21 11 -10 14 -10 15 0 0 7 5 -2 10 -19 5 -18 14 -33 21 -33
7 0 6 6 -2 18 -7 9 1 2 18 -17 18 -18 29 -38 25 -43 -3 -6 0 -9 7 -6 14 4 76
-50 72 -64 -1 -5 2 -7 8 -3 5 3 10 1 10 -5 0 -7 7 -9 16 -6 8 3 12 2 9 -4 -3
-6 -1 -10 5 -10 6 0 9 -4 6 -8 -3 -5 7 -15 22 -23 15 -8 33 -22 40 -31 7 -10
20 -18 28 -18 8 0 14 -7 14 -16 0 -9 9 -18 20 -21 11 -3 20 -9 20 -14 0 -5 7
-9 16 -9 8 0 12 -5 9 -10 -3 -6 1 -10 10 -10 9 0 13 -4 10 -10 -3 -5 3 -10 14
-10 12 0 21 -5 21 -11 0 -5 5 -7 10 -4 6 3 10 0 10 -8 0 -8 8 -21 18 -28 16
-13 16 -12 3 6 -7 11 -2 8 12 -8 14 -15 31 -27 37 -27 5 0 10 -6 10 -12 0 -10
2 -10 9 0 6 10 10 9 14 -7 3 -13 13 -21 27 -21 11 0 18 -4 15 -10 -3 -5 3 -10
15 -10 12 0 18 -4 15 -10 -3 -5 3 -10 15 -10 11 0 23 -7 26 -15 4 -8 10 -12
15 -9 5 3 9 0 9 -6 0 -6 5 -8 10 -5 5 3 10 -2 11 -12 0 -11 3 -13 6 -5 4 9 10
7 23 -8 10 -12 22 -22 27 -23 4 -1 7 -5 6 -9 -1 -3 5 -5 15 -4 9 2 23 -5 30
-15 7 -10 19 -16 27 -13 8 4 15 1 15 -5 0 -6 7 -8 15 -5 8 4 17 -1 21 -10 3
-9 12 -16 20 -16 8 0 14 -6 14 -12 0 -9 4 -8 10 2 5 8 10 10 10 5 0 -6 14 -16
30 -23 17 -8 28 -17 25 -21 -2 -5 6 -7 20 -6 13 2 26 -3 29 -11 3 -7 12 -11
19 -8 8 3 21 -2 29 -10 12 -11 18 -12 28 -3 10 9 11 9 6 0 -5 -9 0 -13 13 -13
12 0 21 -4 21 -9 0 -5 13 -8 29 -7 16 1 29 -2 28 -8 -1 -5 11 -10 26 -11 16
-1 32 -8 37 -15 6 -10 9 -9 13 1 5 12 6 12 6 0 1 -11 4 -11 18 0 11 10 14 10
9 2 -7 -12 10 -17 52 -16 6 1 12 -4 12 -9 0 -6 6 -5 15 2 8 7 15 8 15 3 0 -5
25 -10 55 -11 42 -1 54 2 50 11 -4 6 0 4 7 -5 9 -10 19 -14 28 -8 7 4 19 6 27
3 7 -3 21 1 30 8 12 10 15 10 9 2 -4 -8 -2 -13 8 -13 8 0 18 5 21 10 4 6 11 7
17 4 6 -4 13 -2 17 5 6 9 38 17 85 20 4 1 5 8 2 17 -4 9 -2 13 5 8 6 -4 15 0
20 7 7 11 9 11 9 1 0 -7 5 -10 10 -7 6 4 8 10 5 15 -3 5 4 11 15 15 11 4 18
11 15 16 -6 8 9 13 29 10 5 -1 4 5 -4 13 -10 13 -10 16 3 16 10 0 15 7 12 20
-2 11 -1 19 3 17 4 -1 7 0 7 3 0 13 31 37 40 32 6 -2 5 1 -2 8 -9 10 -9 16 2
26 7 8 11 23 8 35 -4 14 -2 20 4 16 6 -4 9 4 7 18 -1 14 2 25 7 25 6 0 5 8 -1
20 -8 15 -8 20 1 20 9 0 9 3 0 14 -7 8 -8 17 -3 20 13 8 12 56 -2 56 -6 0 -4
5 4 10 12 8 12 10 1 10 -11 0 -11 3 -1 15 10 12 10 15 0 15 -10 0 -10 3 -1 14
9 11 9 16 1 21 -7 4 -10 20 -8 35 3 22 1 27 -11 22 -14 -5 -14 -3 -2 11 11 14
11 17 0 17 -12 0 -12 2 -1 9 11 6 10 10 -4 15 -16 6 -16 8 -4 16 12 8 12 10 1
10 -7 0 -11 6 -7 15 3 8 1 15 -4 15 -5 0 -7 6 -4 14 3 7 -2 21 -11 29 -9 9
-16 19 -15 22 2 35 -1 45 -12 39 -9 -5 -9 -2 1 9 10 13 10 17 1 17 -7 0 -10 8
-7 20 3 11 2 18 -3 15 -4 -3 -13 2 -20 10 -10 12 -10 15 1 15 11 0 11 2 1 9
-7 4 -14 18 -15 29 -1 12 -8 22 -17 23 -9 0 -11 2 -3 6 9 3 7 11 -7 26 -15 16
-17 23 -8 29 12 7 4 12 -13 10 -4 -1 -6 6 -5 16 0 10 -5 16 -13 14 -8 -2 -11
3 -8 13 4 8 3 15 -1 15 -4 0 -8 9 -9 20 -1 11 -9 27 -17 36 -15 14 -20 28 -17
47 1 7 -15 11 -32 8 -10 -1 -4 22 8 31 6 4 2 8 -7 8 -10 0 -18 7 -18 15 0 8
-5 15 -11 15 -6 0 -9 7 -5 15 3 9 0 15 -8 15 -8 0 -17 7 -20 16 -4 10 -2 13 7
8 6 -4 3 2 -8 13 -11 11 -24 18 -29 15 -5 -3 -6 0 -3 6 9 14 -3 43 -14 36 -5
-3 -9 4 -9 16 0 12 -4 18 -10 15 -5 -3 -10 1 -10 9 0 9 -4 16 -10 16 -5 0 -10
7 -10 15 0 8 -4 15 -10 15 -5 0 -10 7 -10 15 0 9 -10 20 -22 25 -13 5 -17 9
-10 9 10 1 10 4 0 15 -7 8 -17 11 -23 8 -5 -3 -7 -2 -3 3 12 13 -12 47 -29 41
-13 -5 -14 -4 -3 9 10 12 10 15 -3 15 -14 0 -32 27 -28 43 1 5 -3 6 -9 2 -5
-3 -10 1 -10 10 0 9 -4 13 -10 10 -5 -3 -10 1 -10 10 0 9 -4 14 -8 11 -4 -2
-14 5 -22 17 -12 21 -12 21 6 7 18 -14 18 -14 0 8 -15 17 -22 19 -28 10 -5 -9
-8 -6 -8 10 0 12 -5 22 -11 22 -5 0 -7 5 -3 12 5 8 2 9 -10 5 -9 -4 -15 -3
-12 2 3 5 -1 11 -9 15 -8 3 -15 13 -15 22 0 10 -6 14 -14 11 -10 -4 -12 1 -9
16 3 16 2 18 -5 9 -7 -10 -12 -6 -22 17 -7 17 -16 28 -21 25 -5 -3 -12 2 -15
10 -3 9 -12 16 -19 16 -8 0 -17 9 -20 20 -3 11 -12 20 -18 20 -7 0 -17 10 -22
22 -6 12 -19 26 -30 32 -11 6 -37 28 -57 49 -21 20 -43 37 -49 37 -7 0 -10 3
-6 6 8 8 -16 33 -25 27 -5 -2 -8 4 -8 14 0 15 -2 16 -10 3 -8 -13 -10 -12 -10
3 0 15 -11 21 -32 18 -4 0 -5 6 -2 14 4 9 0 15 -10 15 -9 0 -16 5 -16 11 0 5
-5 7 -10 4 -6 -3 -10 1 -10 9 0 9 -9 16 -20 16 -11 0 -19 6 -17 13 1 6 -4 11
-10 10 -7 -2 -13 4 -13 13 0 11 -6 14 -22 8 -20 -6 -21 -5 -10 8 10 13 6 18
-28 33 -22 10 -40 24 -40 30 0 7 -10 12 -22 11 -17 -1 -22 4 -20 17 2 11 -4
17 -18 17 -11 0 -20 5 -20 10 0 6 -6 10 -13 10 -7 0 -19 9 -27 19 -7 11 -17
18 -22 15 -5 -3 -18 5 -29 18 -11 13 -18 17 -14 11 3 -7 1 -13 -4 -13 -6 0
-11 7 -11 15 0 8 -7 15 -16 15 -8 0 -13 4 -10 8 2 4 -5 9 -16 9 -12 1 -24 6
-27 11 -3 5 -21 15 -38 23 -18 8 -33 17 -33 21 0 5 -7 8 -15 8 -8 0 -15 3 -15
8 0 4 -9 13 -21 20 -12 8 -18 9 -14 3 3 -6 2 -11 -3 -11 -5 0 -14 10 -20 23
-6 12 -11 16 -11 10 -1 -7 -6 -13 -11 -13 -6 0 -9 5 -8 12 2 7 -7 12 -20 13
-13 0 -30 9 -38 20 -8 11 -17 19 -19 18 -13 -7 -45 -2 -45 8 0 5 5 7 12 3 7
-4 8 -3 4 5 -6 9 -11 9 -22 0 -11 -9 -14 -9 -14 1 0 7 -6 10 -14 7 -8 -3 -17
1 -20 10 -4 8 -13 13 -21 9 -8 -3 -15 -1 -15 5 0 6 -5 7 -10 4 -6 -4 -22 1
-37 10 -17 12 -23 13 -18 4 6 -11 5 -12 -6 -1 -7 6 -23 12 -36 12 -13 0 -23 6
-23 13 0 9 -2 9 -9 -1 -7 -11 -9 -11 -14 2 -4 9 -13 13 -22 10 -8 -4 -23 0
-32 7 -12 10 -15 10 -9 2 4 -7 2 -13 -3 -13 -6 0 -11 5 -11 11 0 6 -7 9 -15 6
-8 -4 -17 -2 -20 2 -2 5 -25 8 -50 7 -25 -1 -45 2 -45 7 0 4 -6 5 -12 0 -7 -4
-19 -8 -26 -9 -10 -2 -11 1 -1 12 14 17 11 17 -25 -2z m1515 -821 c13 -16 12
-17 -3 -4 -17 13 -22 21 -14 21 2 0 10 -8 17 -17z"/>
<path d="M5883 3144 c4 -7 -2 -14 -13 -17 -12 -3 -18 -1 -14 5 5 7 1 7 -11 1
-10 -6 -26 -8 -37 -5 -14 3 -17 1 -11 -14 6 -18 6 -18 -10 -2 -19 18 -52 14
-40 -6 4 -6 -2 -4 -12 4 -13 11 -19 12 -22 3 -2 -7 -11 -9 -19 -6 -8 3 -14 0
-14 -7 0 -6 -5 -8 -10 -5 -6 4 -19 4 -28 0 -9 -4 -30 -9 -46 -11 -17 -3 -34
-10 -38 -17 -6 -9 -8 -9 -8 1 0 10 -4 10 -16 -2 -17 -18 -39 -22 -29 -5 4 6
-2 5 -14 -3 -12 -7 -21 -17 -21 -23 0 -5 -5 -3 -10 5 -7 11 -10 11 -10 2 0 -7
-4 -10 -10 -7 -5 3 -10 1 -10 -4 0 -6 -10 -11 -21 -11 -12 0 -28 -8 -36 -17
-8 -11 -11 -12 -7 -3 7 13 6 13 -11 0 -10 -8 -20 -13 -22 -12 -3 2 -8 0 -11
-4 -4 -4 -1 -4 7 1 9 5 12 4 7 -3 -3 -6 -15 -9 -26 -7 -11 2 -20 -1 -20 -6 0
-6 -5 -7 -12 -3 -7 5 -9 2 -6 -8 5 -11 0 -14 -18 -12 -13 1 -24 -2 -24 -8 0
-6 -7 -7 -16 -4 -14 5 -15 4 -5 -8 11 -13 9 -15 -7 -11 -11 2 -29 -5 -40 -15
-11 -10 -23 -16 -26 -13 -3 4 -6 1 -6 -6 0 -8 -6 -11 -16 -7 -12 5 -15 2 -10
-10 5 -12 2 -15 -9 -10 -9 3 -18 -1 -21 -9 -4 -8 -10 -12 -15 -9 -5 3 -12 -1
-15 -10 -3 -8 -14 -13 -25 -11 -10 2 -22 -1 -25 -7 -5 -7 -2 -8 7 -3 12 7 12
6 1 -7 -8 -10 -20 -14 -29 -11 -11 4 -14 2 -9 -5 5 -8 0 -12 -12 -12 -11 0
-22 -7 -26 -15 -3 -8 -12 -15 -19 -15 -19 0 -49 -35 -40 -45 5 -5 0 -3 -9 4
-13 10 -18 10 -18 2 0 -7 -4 -9 -10 -6 -5 3 -7 0 -4 -8 3 -8 0 -18 -7 -23 -8
-5 -10 -3 -4 5 5 9 1 9 -14 -1 -12 -7 -21 -16 -21 -21 0 -4 -4 -6 -9 -3 -5 3
-11 -1 -15 -9 -3 -8 -12 -15 -21 -15 -8 0 -14 -3 -12 -7 1 -5 -1 -9 -6 -10
-15 -5 -35 -28 -30 -35 2 -5 -6 -8 -18 -8 -12 0 -19 -3 -16 -7 10 -9 -31 -36
-43 -28 -6 4 -7 -1 -3 -12 3 -10 3 -15 -1 -11 -5 4 -21 -8 -37 -25 -16 -18
-34 -32 -39 -32 -6 0 -10 -4 -11 -10 0 -5 -9 -13 -20 -17 -12 -5 -17 -13 -13
-20 5 -8 2 -9 -10 -5 -14 6 -17 3 -12 -8 3 -9 2 -14 -3 -11 -4 3 -17 -2 -27
-10 -10 -9 -13 -12 -5 -8 9 5 12 3 7 -4 -4 -7 -14 -12 -22 -12 -8 0 -12 -4 -9
-10 3 -5 -1 -10 -10 -10 -9 0 -13 -4 -10 -10 3 -5 -1 -10 -10 -10 -11 0 -15
-5 -12 -14 3 -8 -1 -13 -11 -12 -10 0 -16 -6 -16 -16 1 -10 -1 -17 -5 -16 -19
2 -31 -3 -26 -12 6 -9 -8 -14 -28 -11 -5 1 -6 -3 -3 -8 4 -5 2 -12 -4 -16 -6
-4 -7 -11 -4 -17 4 -7 2 -8 -5 -4 -12 8 -44 -18 -34 -28 4 -3 2 -6 -3 -6 -6 0
-19 -7 -30 -16 -10 -8 -12 -12 -4 -8 10 5 9 0 -4 -14 -21 -24 -32 -29 -20 -10
4 7 3 8 -4 4 -6 -4 -8 -14 -5 -23 4 -10 2 -14 -5 -9 -6 3 -13 -3 -17 -14 -3
-11 -13 -20 -21 -20 -8 0 -12 -4 -9 -10 3 -5 1 -10 -4 -10 -6 0 -10 -3 -9 -7
2 -5 -1 -9 -7 -10 -5 -1 -13 -11 -17 -23 -5 -13 -12 -18 -20 -14 -8 5 -9 2 -5
-9 3 -10 2 -17 -4 -17 -6 0 -7 -4 -4 -10 3 -5 -1 -10 -9 -10 -9 0 -16 -6 -16
-14 0 -8 -5 -18 -12 -22 -7 -5 -8 -3 -3 6 5 9 4 11 -3 6 -7 -4 -12 -14 -12
-22 0 -10 -5 -12 -12 -8 -8 5 -8 2 1 -10 12 -15 12 -17 0 -14 -8 2 -13 -3 -11
-9 1 -7 -5 -13 -13 -13 -8 0 -15 -7 -15 -15 0 -8 -4 -15 -10 -15 -5 0 -10 -7
-10 -16 0 -10 -6 -14 -14 -11 -9 4 -12 0 -9 -12 3 -11 -2 -21 -12 -25 -9 -3
-13 -10 -10 -16 3 -6 -1 -13 -10 -16 -9 -4 -14 -13 -11 -21 3 -8 1 -11 -4 -8
-6 3 -10 -1 -10 -10 0 -9 -4 -13 -10 -10 -5 3 -10 -3 -10 -14 0 -11 -5 -23
-12 -27 -7 -5 -8 -3 -3 6 5 9 4 11 -4 6 -6 -4 -10 -15 -9 -24 2 -9 -2 -16 -9
-15 -8 2 -10 -4 -6 -14 4 -11 3 -14 -5 -9 -8 5 -10 1 -5 -10 5 -14 3 -16 -12
-11 -14 6 -16 5 -6 -7 9 -11 8 -15 -4 -20 -9 -3 -13 -10 -10 -16 3 -5 1 -10
-4 -10 -6 0 -10 -6 -9 -12 2 -7 -3 -12 -10 -10 -10 2 -10 -2 -3 -17 9 -17 8
-18 -12 -14 -16 3 -18 2 -9 -5 11 -7 10 -12 -3 -26 -9 -9 -13 -16 -9 -16 4 0
-1 -7 -12 -16 -10 -8 -13 -13 -6 -9 17 9 15 -5 -3 -19 -8 -6 -16 -22 -19 -36
-2 -14 -9 -24 -17 -22 -9 2 -9 -1 2 -14 9 -12 9 -15 2 -10 -12 6 -18 -5 -14
-26 0 -5 -4 -8 -11 -8 -6 0 -8 -3 -5 -7 4 -3 2 -12 -4 -20 -6 -7 -9 -22 -6
-33 3 -11 1 -17 -4 -14 -5 3 -12 -3 -15 -13 -3 -10 -10 -26 -15 -37 -7 -13 -7
-16 0 -11 19 11 12 -3 -11 -26 -13 -12 -17 -19 -10 -15 6 4 12 3 12 -1 0 -5
-6 -15 -12 -22 -11 -11 -10 -12 2 -6 13 8 13 6 2 -8 -8 -9 -10 -22 -6 -28 4
-7 3 -9 -3 -6 -14 9 -22 -34 -11 -62 5 -14 4 -20 -2 -16 -6 3 -10 -3 -10 -15
0 -13 -4 -19 -11 -14 -8 5 -8 1 0 -13 7 -14 7 -23 -1 -31 -9 -9 -9 -12 -1 -12
12 0 12 -25 0 -36 -12 -12 -8 -36 6 -29 6 4 3 -1 -7 -9 -11 -9 -14 -16 -7 -16
7 0 9 -5 6 -10 -3 -6 -2 -10 2 -10 5 0 9 -9 9 -19 0 -11 -5 -17 -11 -13 -5 3
-4 -1 2 -9 10 -12 10 -18 0 -29 -7 -8 -8 -11 -1 -7 11 6 21 -13 30 -58 3 -15
2 -17 -5 -5 -5 8 -7 18 -4 24 3 5 1 6 -6 2 -12 -8 -9 -14 21 -57 11 -14 20
-33 22 -43 1 -10 14 -27 27 -39 14 -12 18 -17 10 -12 -8 6 -2 -7 13 -27 16
-21 31 -38 33 -38 3 0 -1 8 -8 17 -11 13 -8 13 12 -2 15 -11 25 -23 23 -26 -2
-4 3 -10 12 -13 8 -3 13 -2 10 2 -3 5 1 9 9 9 8 0 12 -4 10 -8 -7 -10 44 -41
55 -34 6 3 10 -2 10 -12 0 -14 2 -15 9 -5 12 20 18 19 35 -3 14 -19 15 -19 21
-2 7 17 8 17 22 0 14 -17 14 -17 9 1 -6 16 -4 17 9 6 8 -7 23 -10 34 -7 10 2
25 1 32 -4 9 -5 16 -3 21 9 6 16 7 15 7 -1 1 -10 6 -15 11 -12 6 4 7 12 4 18
-5 8 -3 8 7 0 17 -16 43 -17 33 -1 -5 7 -3 8 7 2 19 -12 33 -12 42 1 4 7 10 7
15 0 10 -13 35 -18 27 -5 -4 6 6 10 25 10 17 0 29 4 26 8 -3 5 1 9 9 9 8 0 15
-4 15 -9 0 -5 5 -6 10 -3 6 4 7 11 4 17 -4 6 -2 8 4 4 6 -3 14 -2 17 4 5 8 12
7 23 -2 13 -11 14 -11 7 1 -6 11 -4 13 8 8 10 -4 17 -1 17 5 0 6 3 8 7 5 3 -4
13 -1 21 6 13 10 15 9 8 -3 -4 -9 -1 -8 7 3 16 20 32 23 21 5 -4 -7 1 -6 12 3
10 9 32 19 47 23 18 4 25 11 20 19 -5 9 -3 9 9 -1 12 -10 18 -9 28 3 7 8 19
15 28 15 8 0 20 7 26 15 6 9 23 17 38 19 14 1 33 10 43 19 9 10 20 15 25 12 4
-3 11 2 14 11 3 8 10 12 16 9 5 -3 10 -1 10 5 0 6 5 8 10 5 6 -3 13 1 16 10 6
13 8 14 15 3 7 -10 9 -8 9 6 0 12 5 16 15 13 18 -7 30 9 13 17 -7 4 -3 4 9 2
16 -3 24 2 29 16 5 16 8 18 15 7 6 -11 9 -10 15 4 3 9 13 17 21 17 8 0 12 4 8
9 -3 5 0 13 6 17 8 4 9 3 5 -4 -10 -17 3 -15 21 3 8 8 19 12 25 9 7 -5 8 -2 4
5 -5 8 0 14 13 18 12 3 21 9 21 14 0 5 6 8 13 7 6 -2 11 3 9 10 -1 6 1 12 5
11 18 -3 52 14 47 22 -3 5 2 9 10 9 8 0 19 8 25 18 5 9 12 16 15 15 15 -7 26
-2 20 9 -5 8 -2 9 12 4 10 -4 15 -4 12 0 -9 9 15 33 26 26 5 -3 7 2 3 10 -4
12 -1 14 14 11 11 -3 19 0 19 6 0 7 -5 9 -12 5 -7 -5 -8 -3 -4 5 5 7 15 10 24
6 9 -3 14 -3 10 0 -9 9 23 45 34 39 4 -3 8 0 8 6 0 6 5 8 13 4 8 -5 7 -2 -2 9
-12 15 -12 17 3 11 10 -4 18 0 22 11 4 9 13 14 21 10 10 -3 14 0 11 7 -2 7 7
24 20 38 l25 25 -12 -25 -12 -25 20 24 c12 12 18 28 14 35 -4 6 2 4 12 -4 10
-8 16 -10 12 -4 -4 7 4 19 18 28 14 9 25 23 25 31 0 8 6 15 13 15 7 0 18 9 25
20 7 12 18 18 24 14 8 -5 9 -2 5 10 -4 10 -3 15 3 11 6 -3 10 -1 10 5 0 7 7 9
16 6 8 -3 12 -2 9 4 -3 5 22 36 56 69 40 38 59 64 54 72 -5 7 -4 10 3 5 13 -8
35 27 24 40 -4 5 1 2 11 -6 16 -11 18 -11 15 1 -2 8 3 13 11 11 12 -3 12 -1 0
14 -8 10 -9 15 -4 12 6 -3 24 8 40 24 17 17 24 27 16 23 -10 -6 -12 -4 -7 4 5
7 14 10 22 7 8 -3 11 0 7 10 -5 14 25 46 38 39 3 -2 6 2 6 10 0 8 -5 11 -11 8
-6 -4 5 9 25 28 20 19 39 42 42 52 4 9 11 17 17 17 6 0 8 5 5 10 -3 6 -1 10 4
10 6 0 11 7 11 16 0 9 5 12 12 8 8 -5 9 -2 5 10 -4 9 -3 15 1 12 4 -2 14 -1
22 5 10 6 11 9 3 9 -7 0 -13 5 -13 10 0 6 6 10 14 10 8 0 18 5 22 12 4 7 3 8
-4 4 -8 -5 -10 -2 -6 8 3 9 10 14 14 11 5 -3 11 4 15 15 4 12 11 17 18 13 7
-4 5 2 -3 12 -8 10 -10 16 -4 12 6 -4 20 3 30 16 19 21 19 21 0 7 -18 -14 -18
-14 -6 7 8 12 18 19 24 16 5 -4 7 1 3 10 -3 10 -2 17 3 17 6 0 10 7 10 16 0 8
4 13 9 10 5 -3 12 1 15 10 4 10 2 13 -6 8 -7 -4 -8 -3 -4 4 4 7 15 12 24 12
14 0 15 2 2 10 -12 7 -10 11 10 19 14 5 19 10 13 10 -7 1 -13 6 -13 12 0 5 5
7 12 3 8 -5 9 0 6 14 -4 12 -2 20 3 16 5 -3 9 2 9 11 0 9 4 14 9 11 5 -3 12 1
15 10 4 10 2 13 -6 8 -13 -8 -3 12 20 38 7 9 11 21 8 27 -4 5 -2 12 4 16 6 4
7 12 3 18 -4 7 0 7 10 -1 14 -12 16 -11 12 8 -2 12 3 33 11 46 9 12 13 28 9
34 -3 5 0 10 8 10 10 0 13 7 10 20 -3 11 -1 20 5 20 11 0 25 37 22 63 -1 9 4
17 10 17 6 0 9 4 6 9 -4 5 0 12 6 14 9 4 9 6 -1 6 -11 1 -10 5 5 17 10 8 13
13 7 9 -8 -4 -13 0 -13 10 0 9 5 13 10 10 6 -3 11 3 11 14 2 29 3 34 13 49 4
7 3 19 -4 26 -7 9 -7 15 -1 18 13 4 22 56 10 63 -5 4 -5 13 1 25 12 22 13 33
2 26 -4 -2 -8 4 -8 14 0 10 4 16 9 13 12 -7 4 30 -8 39 -6 5 -5 8 3 8 9 0 10
5 3 18 -7 13 -6 23 1 30 9 9 9 12 -2 12 -7 0 -10 3 -7 6 3 4 2 15 -4 25 -7 14
-6 19 3 19 8 0 6 5 -4 11 -10 5 -18 15 -18 22 0 7 4 6 10 -3 5 -8 10 -10 10
-4 0 12 -37 64 -55 76 -6 5 -5 8 3 8 8 0 4 9 -10 24 -13 13 -26 21 -30 19 -4
-2 -5 3 -2 11 3 9 1 16 -6 16 -6 0 -8 5 -4 13 5 8 2 7 -9 -2 -15 -12 -17 -12
-11 4 5 13 4 16 -4 11 -7 -4 -12 -2 -12 3 0 6 -7 11 -15 11 -8 0 -15 5 -15 10
0 6 -7 10 -15 10 -8 0 -15 6 -15 13 0 8 -4 7 -10 -3 -8 -12 -10 -12 -10 -1 0
8 -3 11 -7 8 -3 -4 -12 1 -20 11 -8 9 -12 11 -8 5 3 -7 1 -13 -4 -13 -6 0 -11
6 -11 13 0 9 -2 9 -9 -1 -7 -11 -9 -11 -14 1 -3 9 -14 14 -24 12 -10 -1 -24 2
-30 8 -9 6 -13 6 -13 -2 0 -9 -5 -9 -20 -1 -11 6 -20 8 -20 4 0 -3 -8 0 -17 7
-9 8 -14 9 -10 3z m-313 -1887 c0 -2 -10 -12 -22 -23 l-23 -19 19 23 c18 21
26 27 26 19z"/>
<path d="M890 1426 c0 -2 8 -10 18 -17 15 -13 16 -12 3 4 -13 16 -21 21 -21
13z"/>
</g>
</svg>
